<svg width="33" height="33" viewBox="0 0 33 33" fill="none" xmlns="http://www.w3.org/2000/svg">
<path d="M14.1667 7.16667V7.66667H19.1667V7.16667C19.1667 6.50363 18.9033 5.86774 18.4345 5.3989C17.9656 4.93006 17.3297 4.66667 16.6667 4.66667C16.0036 4.66667 15.3678 4.93006 14.8989 5.3989C14.4301 5.86774 14.1667 6.50363 14.1667 7.16667ZM12.1667 7.66667V7.16667C12.1667 5.97319 12.6408 4.8286 13.4847 3.98469C14.3286 3.14077 15.4732 2.66667 16.6667 2.66667C17.8602 2.66667 19.0048 3.14077 19.8487 3.98469C20.6926 4.8286 21.1667 5.97319 21.1667 7.16667V7.66667H28.6667C28.9319 7.66667 29.1863 7.77202 29.3738 7.95956C29.5613 8.1471 29.6667 8.40145 29.6667 8.66667C29.6667 8.93188 29.5613 9.18624 29.3738 9.37377C29.1863 9.56131 28.9319 9.66667 28.6667 9.66667H27.1587L25.2667 26.2347C25.1272 27.4549 24.5435 28.581 23.6268 29.3984C22.7102 30.2158 21.5248 30.6672 20.2967 30.6667H13.0367C11.8086 30.6672 10.6232 30.2158 9.70654 29.3984C8.78992 28.581 8.2062 27.4549 8.06669 26.2347L6.17469 9.66667H4.66669C4.40147 9.66667 4.14712 9.56131 3.95958 9.37377C3.77204 9.18624 3.66669 8.93188 3.66669 8.66667C3.66669 8.40145 3.77204 8.1471 3.95958 7.95956C4.14712 7.77202 4.40147 7.66667 4.66669 7.66667H12.1667ZM10.0547 26.0067C10.1382 26.7386 10.488 27.4142 11.0376 27.9047C11.5872 28.3953 12.298 28.6665 13.0347 28.6667H20.2977C21.0343 28.6665 21.7452 28.3953 22.2948 27.9047C22.8443 27.4142 23.1942 26.7386 23.2777 26.0067L25.1467 9.66667H8.18769L10.0547 26.0067ZM13.6667 13.1667C13.9319 13.1667 14.1863 13.272 14.3738 13.4596C14.5613 13.6471 14.6667 13.9015 14.6667 14.1667V24.1667C14.6667 24.4319 14.5613 24.6862 14.3738 24.8738C14.1863 25.0613 13.9319 25.1667 13.6667 25.1667C13.4015 25.1667 13.1471 25.0613 12.9596 24.8738C12.772 24.6862 12.6667 24.4319 12.6667 24.1667V14.1667C12.6667 13.9015 12.772 13.6471 12.9596 13.4596C13.1471 13.272 13.4015 13.1667 13.6667 13.1667ZM20.6667 14.1667C20.6667 13.9015 20.5613 13.6471 20.3738 13.4596C20.1863 13.272 19.9319 13.1667 19.6667 13.1667C19.4015 13.1667 19.1471 13.272 18.9596 13.4596C18.772 13.6471 18.6667 13.9015 18.6667 14.1667V24.1667C18.6667 24.4319 18.772 24.6862 18.9596 24.8738C19.1471 25.0613 19.4015 25.1667 19.6667 25.1667C19.9319 25.1667 20.1863 25.0613 20.3738 24.8738C20.5613 24.6862 20.6667 24.4319 20.6667 24.1667V14.1667Z" fill="#6F6F6F"/>
</svg>
