<svg width="15" height="17" viewBox="0 0 15 17" fill="none" xmlns="http://www.w3.org/2000/svg">
<path d="M6.7,16.1c0.1,0.1,0.2,0.2,0.4,0.3c0.1,0.1,0.3,0.1,0.5,0.1c0.2,0,0.3,0,0.5-0.1c0.1-0.1,0.3-0.2,0.4-0.3
	l5.5-6.9c0.4-0.5,0.4-1.6-0.5-1.9c-0.1,0-0.2,0-0.3,0l-1.5,0c-0.1,0-0.1,0-0.2,0c-0.1,0-0.1-0.1-0.2-0.1c0,0-0.1-0.1-0.1-0.2
	c0-0.1,0-0.1,0-0.2l0-5.2c0-0.3-0.1-0.6-0.3-0.8c-0.2-0.2-0.5-0.3-0.8-0.3L5,0.5c-0.1,0-0.3,0-0.4,0.1C4.5,0.6,4.4,0.7,4.3,0.8
	S4.1,1,4,1.2C4,1.3,4,1.4,4,1.6l0,5.2c0,0.1-0.1,0.3-0.1,0.3C3.7,7.2,3.6,7.3,3.5,7.3l-1.6,0c-1.1,0-1.2,1.3-0.7,1.8L6.7,16.1
	L6.7,16.1z" fill="#6F6F6F"/>
</svg>