<svg width="25" height="25" viewBox="0 0 25 25" fill="none" xmlns="http://www.w3.org/2000/svg">
<path d="M11.6667 4.66667H4.66669C4.13625 4.66667 3.62755 4.87738 3.25247 5.25245C2.8774 5.62753 2.66669 6.13623 2.66669 6.66667V20.6667C2.66669 21.1971 2.8774 21.7058 3.25247 22.0809C3.62755 22.456 4.13625 22.6667 4.66669 22.6667H18.6667C19.1971 22.6667 19.7058 22.456 20.0809 22.0809C20.456 21.7058 20.6667 21.1971 20.6667 20.6667V13.6667" stroke="#6F6F6F" stroke-width="2" stroke-linecap="round" stroke-linejoin="round"/>
<path d="M19.1667 3.16667C19.5645 2.76884 20.1041 2.54535 20.6667 2.54535C21.2293 2.54535 21.7689 2.76884 22.1667 3.16667C22.5645 3.56449 22.788 4.10406 22.788 4.66667C22.788 5.22928 22.5645 5.76884 22.1667 6.16667L12.6667 15.6667L8.66669 16.6667L9.66669 12.6667L19.1667 3.16667Z" stroke="#6F6F6F" stroke-width="2" stroke-linecap="round" stroke-linejoin="round"/>
</svg>
