<svg width="15" height="17" viewBox="0 0 15 17" fill="none" xmlns="http://www.w3.org/2000/svg">
<path class="st0" d="M8.4,1.1C8.3,1,8.1,0.9,8,0.8S7.7,0.7,7.5,0.7c-0.2,0-0.3,0-0.5,0.1C6.9,0.9,6.8,1,6.7,1.1L1.2,8.1
	C0.7,8.6,0.8,9.7,1.6,9.9c0.1,0,0.2,0,0.3,0l1.5,0c0.1,0,0.1,0,0.2,0c0.1,0,0.1,0.1,0.2,0.1c0,0,0.1,0.1,0.1,0.2c0,0.1,0,0.1,0,0.2
	l0,5.2c0,0.3,0.1,0.6,0.3,0.8c0.2,0.2,0.5,0.3,0.8,0.3l4.9,0c0.1,0,0.3,0,0.4-0.1c0.1-0.1,0.3-0.1,0.4-0.2c0.1-0.1,0.2-0.2,0.2-0.4
	c0.1-0.1,0.1-0.3,0.1-0.4l0-5.2c0-0.1,0.1-0.3,0.1-0.3s0.2-0.1,0.3-0.1l1.6,0c1.1,0,1.2-1.3,0.7-1.8L8.4,1.1L8.4,1.1z" fill="#6F6F6F"/>
</svg>
