<svg width="37" height="35" viewBox="0 0 37 35" fill="none" xmlns="http://www.w3.org/2000/svg">
<path d="M36.8304 33.3558C33.9664 28.4832 29.4703 25.0641 24.246 23.6141C26.786 22.3429 28.8171 20.2665 30.0118 17.7197C31.2065 15.1729 31.4952 12.3041 30.8314 9.57601C30.1676 6.84788 28.5899 4.41939 26.3527 2.6821C24.1155 0.944816 21.3493 0 18.5 0C15.6507 0 12.8845 0.944816 10.6473 2.6821C8.41014 4.41939 6.83244 6.84788 6.1686 9.57601C5.50477 12.3041 5.79349 15.1729 6.98822 17.7197C8.18294 20.2665 10.214 22.3429 12.754 23.6141C7.52968 25.0623 3.03359 28.4814 0.169646 33.3558C0.0910054 33.4776 0.0382013 33.6138 0.0144103 33.7562C-0.00938067 33.8986 -0.00366665 34.0443 0.0312081 34.1845C0.0660828 34.3247 0.129398 34.4564 0.217344 34.5719C0.30529 34.6874 0.41605 34.7841 0.542961 34.8564C0.669871 34.9286 0.81031 34.9748 0.955827 34.9922C1.10134 35.0096 1.24893 34.9978 1.38972 34.9576C1.5305 34.9174 1.66157 34.8496 1.77503 34.7582C1.8885 34.6668 1.98201 34.5538 2.04996 34.4259C5.52981 28.5064 11.678 24.9732 18.5 24.9732C25.322 24.9732 31.4702 28.5064 34.95 34.4259C35.018 34.5538 35.1115 34.6668 35.225 34.7582C35.3384 34.8496 35.4695 34.9174 35.6103 34.9576C35.7511 34.9978 35.8987 35.0096 36.0442 34.9922C36.1897 34.9748 36.3301 34.9286 36.457 34.8564C36.584 34.7841 36.6947 34.6874 36.7827 34.5719C36.8706 34.4564 36.9339 34.3247 36.9688 34.1845C37.0037 34.0443 37.0094 33.8986 36.9856 33.7562C36.9618 33.6138 36.909 33.4776 36.8304 33.3558ZM7.99342 12.4884C7.99342 10.4425 8.60962 8.44247 9.7641 6.74133C10.9186 5.04019 12.5595 3.7143 14.4793 2.93135C16.3991 2.1484 18.5117 1.94355 20.5497 2.34269C22.5878 2.74184 24.4599 3.72706 25.9293 5.17376C27.3986 6.62046 28.3993 8.46368 28.8047 10.4703C29.2101 12.477 29.002 14.5569 28.2068 16.4471C27.4116 18.3373 26.0649 19.9529 24.3371 21.0896C22.6093 22.2262 20.578 22.8329 18.5 22.8329C15.7145 22.8296 13.0441 21.7387 11.0744 19.7994C9.1048 17.8602 7.99678 15.2309 7.99342 12.4884Z" fill="#6F6F6F"/>
</svg>
